<?xml version="1.0" encoding="UTF-8"?>
<mxfile host="app.diagrams.net" modified="2021-05-13T08:56:54.313Z" agent="5.0 (Windows NT 10.0; Win64; x64) AppleWebKit/537.36 (KHTML, like Gecko) Chrome/86.0.4240.272 Whale/2.9.117.22 Safari/537.36" etag="aQFPga_Whfv9Y4r_3MLN" version="14.6.12" type="google">
  <diagram id="C5RBs43oDa-KdzZeNtuy" name="Page-1">
    <mxGraphModel dx="3076" dy="794" grid="1" gridSize="10" guides="1" tooltips="1" connect="1" arrows="1" fold="1" page="1" pageScale="1" pageWidth="827" pageHeight="1169" math="0" shadow="0">
      <root>
        <mxCell id="WIyWlLk6GJQsqaUBKTNV-0" />
        <mxCell id="WIyWlLk6GJQsqaUBKTNV-1" parent="WIyWlLk6GJQsqaUBKTNV-0" />
        <mxCell id="6Wl_9wXjOhgknvOmrXjd-9" value="Controller" style="swimlane;fontStyle=2;align=center;verticalAlign=top;childLayout=stackLayout;horizontal=1;startSize=26;horizontalStack=0;resizeParent=1;resizeLast=0;collapsible=1;marginBottom=0;rounded=0;shadow=0;strokeWidth=1;" parent="WIyWlLk6GJQsqaUBKTNV-1" vertex="1">
          <mxGeometry x="-500" y="90" width="200" height="114" as="geometry">
            <mxRectangle x="230" y="140" width="160" height="26" as="alternateBounds" />
          </mxGeometry>
        </mxCell>
        <mxCell id="6Wl_9wXjOhgknvOmrXjd-10" value="-booksService:BooksService&#xa;" style="text;align=left;verticalAlign=top;spacingLeft=4;spacingRight=4;overflow=hidden;rotatable=0;points=[[0,0.5],[1,0.5]];portConstraint=eastwest;" parent="6Wl_9wXjOhgknvOmrXjd-9" vertex="1">
          <mxGeometry y="26" width="200" height="26" as="geometry" />
        </mxCell>
        <mxCell id="y5AeBNAmy6L0c15EpjTO-43" value="-EbookContent:BooksResponseDto&#xa;" style="text;align=left;verticalAlign=top;spacingLeft=4;spacingRight=4;overflow=hidden;rotatable=0;points=[[0,0.5],[1,0.5]];portConstraint=eastwest;" parent="6Wl_9wXjOhgknvOmrXjd-9" vertex="1">
          <mxGeometry y="52" width="200" height="26" as="geometry" />
        </mxCell>
        <mxCell id="6Wl_9wXjOhgknvOmrXjd-11" value="" style="line;html=1;strokeWidth=1;align=left;verticalAlign=middle;spacingTop=-1;spacingLeft=3;spacingRight=3;rotatable=0;labelPosition=right;points=[];portConstraint=eastwest;" parent="6Wl_9wXjOhgknvOmrXjd-9" vertex="1">
          <mxGeometry y="78" width="200" height="10" as="geometry" />
        </mxCell>
        <mxCell id="6Wl_9wXjOhgknvOmrXjd-12" value="+get(queryRequest:string):string" style="text;align=left;verticalAlign=top;spacingLeft=4;spacingRight=4;overflow=hidden;rotatable=0;points=[[0,0.5],[1,0.5]];portConstraint=eastwest;" parent="6Wl_9wXjOhgknvOmrXjd-9" vertex="1">
          <mxGeometry y="88" width="200" height="26" as="geometry" />
        </mxCell>
        <mxCell id="6Wl_9wXjOhgknvOmrXjd-24" value="" style="endArrow=none;html=1;exitX=0.5;exitY=1;exitDx=0;exitDy=0;rounded=0;endFill=0;" parent="WIyWlLk6GJQsqaUBKTNV-1" edge="1">
          <mxGeometry width="50" height="50" relative="1" as="geometry">
            <mxPoint x="-616" y="132" as="sourcePoint" />
            <mxPoint x="-500" y="132" as="targetPoint" />
            <Array as="points">
              <mxPoint x="-500" y="132" />
            </Array>
          </mxGeometry>
        </mxCell>
        <mxCell id="y5AeBNAmy6L0c15EpjTO-0" value="BooksRepository" style="swimlane;fontStyle=0;align=center;verticalAlign=top;childLayout=stackLayout;horizontal=1;startSize=26;horizontalStack=0;resizeParent=1;resizeLast=0;collapsible=1;marginBottom=0;rounded=0;shadow=0;strokeWidth=1;" parent="WIyWlLk6GJQsqaUBKTNV-1" vertex="1">
          <mxGeometry x="108.5" y="261" width="250" height="54" as="geometry">
            <mxRectangle x="340" y="380" width="170" height="26" as="alternateBounds" />
          </mxGeometry>
        </mxCell>
        <mxCell id="y5AeBNAmy6L0c15EpjTO-1" value="" style="line;html=1;strokeWidth=1;align=left;verticalAlign=middle;spacingTop=-1;spacingLeft=3;spacingRight=3;rotatable=0;labelPosition=right;points=[];portConstraint=eastwest;" parent="y5AeBNAmy6L0c15EpjTO-0" vertex="1">
          <mxGeometry y="26" width="250" height="8" as="geometry" />
        </mxCell>
        <mxCell id="y5AeBNAmy6L0c15EpjTO-45" value="+findById(Id:Long):Books" style="text;html=1;align=left;verticalAlign=middle;resizable=0;points=[];autosize=1;strokeColor=none;" parent="y5AeBNAmy6L0c15EpjTO-0" vertex="1">
          <mxGeometry y="34" width="250" height="20" as="geometry" />
        </mxCell>
        <mxCell id="y5AeBNAmy6L0c15EpjTO-5" value="" style="endArrow=classic;html=1;rounded=0;entryX=0;entryY=0.25;entryDx=0;entryDy=0;exitX=0.49;exitY=1;exitDx=0;exitDy=0;exitPerimeter=0;" parent="WIyWlLk6GJQsqaUBKTNV-1" source="6Wl_9wXjOhgknvOmrXjd-12" target="y5AeBNAmy6L0c15EpjTO-6" edge="1">
          <mxGeometry width="50" height="50" relative="1" as="geometry">
            <mxPoint x="-407" y="220" as="sourcePoint" />
            <mxPoint x="-282.5" y="403" as="targetPoint" />
            <Array as="points">
              <mxPoint x="-402" y="268" />
            </Array>
          </mxGeometry>
        </mxCell>
        <mxCell id="y5AeBNAmy6L0c15EpjTO-6" value="BooksService" style="swimlane;fontStyle=0;align=center;verticalAlign=top;childLayout=stackLayout;horizontal=1;startSize=26;horizontalStack=0;resizeParent=1;resizeLast=0;collapsible=1;marginBottom=0;rounded=0;shadow=0;strokeWidth=1;" parent="WIyWlLk6GJQsqaUBKTNV-1" vertex="1">
          <mxGeometry x="-352.5" y="244" width="320" height="94" as="geometry">
            <mxRectangle x="340" y="380" width="170" height="26" as="alternateBounds" />
          </mxGeometry>
        </mxCell>
        <mxCell id="y5AeBNAmy6L0c15EpjTO-7" value="-booksRepository:BooksRepository" style="text;html=1;align=left;verticalAlign=middle;resizable=0;points=[];autosize=1;strokeColor=none;" parent="y5AeBNAmy6L0c15EpjTO-6" vertex="1">
          <mxGeometry y="26" width="320" height="20" as="geometry" />
        </mxCell>
        <mxCell id="y5AeBNAmy6L0c15EpjTO-44" value="-entity:Books" style="text;html=1;align=left;verticalAlign=middle;resizable=0;points=[];autosize=1;strokeColor=none;" parent="y5AeBNAmy6L0c15EpjTO-6" vertex="1">
          <mxGeometry y="46" width="320" height="20" as="geometry" />
        </mxCell>
        <mxCell id="y5AeBNAmy6L0c15EpjTO-8" value="" style="line;html=1;strokeWidth=1;align=left;verticalAlign=middle;spacingTop=-1;spacingLeft=3;spacingRight=3;rotatable=0;labelPosition=right;points=[];portConstraint=eastwest;" parent="y5AeBNAmy6L0c15EpjTO-6" vertex="1">
          <mxGeometry y="66" width="320" height="8" as="geometry" />
        </mxCell>
        <mxCell id="y5AeBNAmy6L0c15EpjTO-11" value="+findById(id:Long):BookResponseDto" style="text;html=1;align=left;verticalAlign=middle;resizable=0;points=[];autosize=1;strokeColor=none;" parent="y5AeBNAmy6L0c15EpjTO-6" vertex="1">
          <mxGeometry y="74" width="320" height="20" as="geometry" />
        </mxCell>
        <mxCell id="y5AeBNAmy6L0c15EpjTO-12" value="Books" style="swimlane;fontStyle=0;align=center;verticalAlign=top;childLayout=stackLayout;horizontal=1;startSize=26;horizontalStack=0;resizeParent=1;resizeLast=0;collapsible=1;marginBottom=0;rounded=0;shadow=0;strokeWidth=1;" parent="WIyWlLk6GJQsqaUBKTNV-1" vertex="1">
          <mxGeometry x="132.5" y="414" width="210" height="274" as="geometry">
            <mxRectangle x="340" y="380" width="170" height="26" as="alternateBounds" />
          </mxGeometry>
        </mxCell>
        <mxCell id="y5AeBNAmy6L0c15EpjTO-13" value="-Long id" style="text;html=1;align=left;verticalAlign=middle;resizable=0;points=[];autosize=1;strokeColor=none;" parent="y5AeBNAmy6L0c15EpjTO-12" vertex="1">
          <mxGeometry y="26" width="210" height="20" as="geometry" />
        </mxCell>
        <mxCell id="y5AeBNAmy6L0c15EpjTO-14" value="-String title&lt;span style=&quot;color: rgba(0 , 0 , 0 , 0) ; font-family: monospace ; font-size: 0px&quot;&gt;%3CmxGraphModel%3E%3Croot%3E%3CmxCell%20id%3D%220%22%2F%3E%3CmxCell%20id%3D%221%22%20parent%3D%220%22%2F%3E%3CmxCell%20id%3D%222%22%20value%3D%22%2B%22%20style%3D%22text%3Bhtml%3D1%3Balign%3Dleft%3BverticalAlign%3Dmiddle%3Bresizable%3D0%3Bpoints%3D%5B%5D%3Bautosize%3D1%3BstrokeColor%3Dnone%3B%22%20vertex%3D%221%22%20parent%3D%221%22%3E%3CmxGeometry%20x%3D%22730%22%20y%3D%22296%22%20width%3D%22180%22%20height%3D%2220%22%20as%3D%22geometry%22%2F%3E%3C%2FmxCell%3E%3C%2Froot%3E%3C%2FmxGraphModel%3E&lt;/span&gt;" style="text;html=1;align=left;verticalAlign=middle;resizable=0;points=[];autosize=1;strokeColor=none;" parent="y5AeBNAmy6L0c15EpjTO-12" vertex="1">
          <mxGeometry y="46" width="210" height="20" as="geometry" />
        </mxCell>
        <mxCell id="y5AeBNAmy6L0c15EpjTO-15" value="-String author&lt;span style=&quot;color: rgba(0 , 0 , 0 , 0) ; font-family: monospace ; font-size: 0px&quot;&gt;%3CmxGraphModel%3E%3Croot%3E%3CmxCell%20id%3D%220%22%2F%3E%3CmxCell%20id%3D%221%22%20parent%3D%220%22%2F%3E%3CmxCell%20id%3D%222%22%20value%3D%22%2B%22%20style%3D%22text%3Bhtml%3D1%3Balign%3Dleft%3BverticalAlign%3Dmiddle%3Bresizable%3D0%3Bpoints%3D%5B%5D%3Bautosize%3D1%3BstrokeColor%3Dnone%3B%22%20vertex%3D%221%22%20parent%3D%221%22%3E%3CmxGeometry%20x%3D%22730%22%20y%3D%22296%22%20width%3D%22180%22%20height%3D%2220%22%20as%3D%22geometry%22%2F%3E%3C%2FmxCell%3E%3C%2Froot%3E%3C%2FmxGraphModel%3E&lt;/span&gt;" style="text;html=1;align=left;verticalAlign=middle;resizable=0;points=[];autosize=1;strokeColor=none;" parent="y5AeBNAmy6L0c15EpjTO-12" vertex="1">
          <mxGeometry y="66" width="210" height="20" as="geometry" />
        </mxCell>
        <mxCell id="y5AeBNAmy6L0c15EpjTO-16" value="-String image_path&lt;span style=&quot;color: rgba(0 , 0 , 0 , 0) ; font-family: monospace ; font-size: 0px&quot;&gt;%3CmxGraphModel%3E%3Croot%3E%3CmxCell%20id%3D%220%22%2F%3E%3CmxCell%20id%3D%221%22%20parent%3D%220%22%2F%3E%3CmxCell%20id%3D%222%22%20value%3D%22%2B%22%20style%3D%22text%3Bhtml%3D1%3Balign%3Dleft%3BverticalAlign%3Dmiddle%3Bresizable%3D0%3Bpoints%3D%5B%5D%3Bautosize%3D1%3BstrokeColor%3Dnone%3B%22%20vertex%3D%221%22%20parent%3D%221%22%3E%3CmxGeometry%20x%3D%22730%22%20y%3D%22296%22%20width%3D%22180%22%20height%3D%2220%22%20as%3D%22geometry%22%2F%3E%3C%2FmxCell%3E%3C%2Froot%3E%3C%2FmxGraphModel%3E&lt;/span&gt;" style="text;html=1;align=left;verticalAlign=middle;resizable=0;points=[];autosize=1;strokeColor=none;" parent="y5AeBNAmy6L0c15EpjTO-12" vertex="1">
          <mxGeometry y="86" width="210" height="20" as="geometry" />
        </mxCell>
        <mxCell id="y5AeBNAmy6L0c15EpjTO-17" value="-String description&lt;span style=&quot;color: rgba(0 , 0 , 0 , 0) ; font-family: monospace ; font-size: 0px&quot;&gt;%3CmxGraphModel%3E%3Croot%3E%3CmxCell%20id%3D%220%22%2F%3E%3CmxCell%20id%3D%221%22%20parent%3D%220%22%2F%3E%3CmxCell%20id%3D%222%22%20value%3D%22%2B%22%20style%3D%22text%3Bhtml%3D1%3Balign%3Dleft%3BverticalAlign%3Dmiddle%3Bresizable%3D0%3Bpoints%3D%5B%5D%3Bautosize%3D1%3BstrokeColor%3Dnone%3B%22%20vertex%3D%221%22%20parent%3D%221%22%3E%3CmxGeometry%20x%3D%22730%22%20y%3D%22296%22%20width%3D%22180%22%20height%3D%2220%22%20as%3D%22geometry%22%2F%3E%3C%2FmxCell%3E%3C%2Froot%3E%3C%2FmxGraphModel%3E&lt;/span&gt;" style="text;html=1;align=left;verticalAlign=middle;resizable=0;points=[];autosize=1;strokeColor=none;" parent="y5AeBNAmy6L0c15EpjTO-12" vertex="1">
          <mxGeometry y="106" width="210" height="20" as="geometry" />
        </mxCell>
        <mxCell id="y5AeBNAmy6L0c15EpjTO-18" value="-int price&lt;span style=&quot;color: rgba(0 , 0 , 0 , 0) ; font-family: monospace ; font-size: 0px&quot;&gt;3CmxGraphModel%3E%3Croot%3E%3CmxCell%20id%3D%220%22%2F%3E%3CmxCell%20id%3D%221%22%20parent%3D%220%22%2F%3E%3CmxCell%20id%3D%222%22%20value%3D%22%2B%22%20style%3D%22text%3Bhtml%3D1%3Balign%3Dleft%3BverticalAlign%3Dmiddle%3Bresizable%3D0%3Bpoints%3D%5B%5D%3Bautosize%3D1%3BstrokeColor%3Dnone%3B%22%20vertex%3D%221%22%20parent%3D%221%22%3E%3CmxGeometry%20x%3D%22730%22%20y%3D%22296%22%20width%3D%22180%22%20height%3D%2220%22%20as%3D%22geometry%22%2F%3E%3C%2FmxCell%3E%3C%2Froot%3E%3C%2FmxGraphModel%3E&lt;/span&gt;" style="text;html=1;align=left;verticalAlign=middle;resizable=0;points=[];autosize=1;strokeColor=none;" parent="y5AeBNAmy6L0c15EpjTO-12" vertex="1">
          <mxGeometry y="126" width="210" height="20" as="geometry" />
        </mxCell>
        <mxCell id="y5AeBNAmy6L0c15EpjTO-19" value="-int quantity&lt;span style=&quot;color: rgba(0 , 0 , 0 , 0) ; font-family: monospace ; font-size: 0px&quot;&gt;3CmxGraphModel%3E%3Croot%3E%3CmxCell%20id%3D%220%22%2F%3E%3CmxCell%20id%3D%221%22%20parent%3D%220%22%2F%3E%3CmxCell%20id%3D%222%22%20value%3D%22%2B%22%20style%3D%22text%3Bhtml%3D1%3Balign%3Dleft%3BverticalAlign%3Dmiddle%3Bresizable%3D0%3Bpoints%3D%5B%5D%3Bautosize%3D1%3BstrokeColor%3Dnone%3B%22%20vertex%3D%221%22%20parent%3D%221%22%3E%3CmxGeometry%20x%3D%22730%22%20y%3D%22296%22%20width%3D%22180%22%20height%3D%2220%22%20as%3D%22geometry%22%2F%3E%3C%2FmxCell%3E%3C%2Froot%3E%3C%2FmxGraphModel&lt;/span&gt;" style="text;html=1;align=left;verticalAlign=middle;resizable=0;points=[];autosize=1;strokeColor=none;" parent="y5AeBNAmy6L0c15EpjTO-12" vertex="1">
          <mxGeometry y="146" width="210" height="20" as="geometry" />
        </mxCell>
        <mxCell id="y5AeBNAmy6L0c15EpjTO-20" value="-String location&lt;span style=&quot;color: rgba(0 , 0 , 0 , 0) ; font-family: monospace ; font-size: 0px&quot;&gt;%3E%3Croot%3E%3CmxCell%20id%3D%220%22%2F%3E%3CmxCell%20id%3D%221%22%20parent%3D%220%22%2F%3E%3CmxCell%20id%3D%222%22%20value%3D%22%2B%22%20style%3D%22text%3Bhtml%3D1%3Balign%3Dleft%3BverticalAlign%3Dmiddle%3Bresizable%3D0%3Bpoints%3D%5B%5D%3Bautosize%3D1%3BstrokeColor%3Dnone%3B%22%20vertex%3D%221%22%20parent%3D%221%22%3E%3CmxGeometry%20x%3D%22730%22%20y%3D%22296%22%20width%3D%22180%22%20height%3D%2220%22%20as%3D%22geometry%22%2F%3E%3C%2FmxCell%3E%3C%2Froot%3E%3C%2FmxGraphModel&lt;/span&gt;" style="text;html=1;align=left;verticalAlign=middle;resizable=0;points=[];autosize=1;strokeColor=none;" parent="y5AeBNAmy6L0c15EpjTO-12" vertex="1">
          <mxGeometry y="166" width="210" height="20" as="geometry" />
        </mxCell>
        <mxCell id="y5AeBNAmy6L0c15EpjTO-21" value="-String ebookFile_path&lt;span style=&quot;color: rgba(0 , 0 , 0 , 0) ; font-family: monospace ; font-size: 0px&quot;&gt;%3E%3Croot%3E%3CmxCell%20id%3D%220%22%2F%3E%3CmxCell%20id%3D%221%22%20parent%3D%220%22%2F%3E%3CmxCell%20id%3D%222%22%20value%3D%22%2B%22%20style%3D%22text%3Bhtml%3D1%3Balign%3Dleft%3BverticalAlign%3Dmiddle%3Bresizable%3D0%3Bpoints%3D%5B%5D%3Bautosize%3D1%3BstrokeColor%3Dnone%3B%22%20vertex%3D%221%22%20parent%3D%221%22%3E%3CmxGeometry%20x%3D%22730%22%20y%3D%22296%22%20width%3D%22180%22%20height%3D%2220%22%20as%3D%22geometry%22%2F%3E%3C%2FmxCell%3E%3C%2Froot%3E%3C%2FmxGraphModel&lt;/span&gt;" style="text;html=1;align=left;verticalAlign=middle;resizable=0;points=[];autosize=1;strokeColor=none;" parent="y5AeBNAmy6L0c15EpjTO-12" vertex="1">
          <mxGeometry y="186" width="210" height="20" as="geometry" />
        </mxCell>
        <mxCell id="y5AeBNAmy6L0c15EpjTO-22" value="" style="line;html=1;strokeWidth=1;align=left;verticalAlign=middle;spacingTop=-1;spacingLeft=3;spacingRight=3;rotatable=0;labelPosition=right;points=[];portConstraint=eastwest;" parent="y5AeBNAmy6L0c15EpjTO-12" vertex="1">
          <mxGeometry y="206" width="210" height="8" as="geometry" />
        </mxCell>
        <mxCell id="y5AeBNAmy6L0c15EpjTO-23" value="+Books(title:string, author:stirng,&lt;br&gt;image_path:string, description:string,&lt;br&gt;price:int, quantity:int, location:stirng,&lt;br&gt;ebookFile_path:stirng)" style="text;html=1;align=left;verticalAlign=middle;resizable=0;points=[];autosize=1;strokeColor=none;" parent="y5AeBNAmy6L0c15EpjTO-12" vertex="1">
          <mxGeometry y="214" width="210" height="60" as="geometry" />
        </mxCell>
        <mxCell id="y5AeBNAmy6L0c15EpjTO-24" value="BooksResponseDto" style="swimlane;fontStyle=0;align=center;verticalAlign=top;childLayout=stackLayout;horizontal=1;startSize=26;horizontalStack=0;resizeParent=1;resizeLast=0;collapsible=1;marginBottom=0;rounded=0;shadow=0;strokeWidth=1;" parent="WIyWlLk6GJQsqaUBKTNV-1" vertex="1">
          <mxGeometry x="-292.5" y="444" width="200" height="234" as="geometry">
            <mxRectangle x="340" y="380" width="170" height="26" as="alternateBounds" />
          </mxGeometry>
        </mxCell>
        <mxCell id="y5AeBNAmy6L0c15EpjTO-25" value="-Long id" style="text;html=1;align=left;verticalAlign=middle;resizable=0;points=[];autosize=1;strokeColor=none;" parent="y5AeBNAmy6L0c15EpjTO-24" vertex="1">
          <mxGeometry y="26" width="200" height="20" as="geometry" />
        </mxCell>
        <mxCell id="y5AeBNAmy6L0c15EpjTO-26" value="-String title&lt;span style=&quot;color: rgba(0 , 0 , 0 , 0) ; font-family: monospace ; font-size: 0px&quot;&gt;%3CmxGraphModel%3E%3Croot%3E%3CmxCell%20id%3D%220%22%2F%3E%3CmxCell%20id%3D%221%22%20parent%3D%220%22%2F%3E%3CmxCell%20id%3D%222%22%20value%3D%22%2B%22%20style%3D%22text%3Bhtml%3D1%3Balign%3Dleft%3BverticalAlign%3Dmiddle%3Bresizable%3D0%3Bpoints%3D%5B%5D%3Bautosize%3D1%3BstrokeColor%3Dnone%3B%22%20vertex%3D%221%22%20parent%3D%221%22%3E%3CmxGeometry%20x%3D%22730%22%20y%3D%22296%22%20width%3D%22180%22%20height%3D%2220%22%20as%3D%22geometry%22%2F%3E%3C%2FmxCell%3E%3C%2Froot%3E%3C%2FmxGraphModel%3E&lt;/span&gt;" style="text;html=1;align=left;verticalAlign=middle;resizable=0;points=[];autosize=1;strokeColor=none;" parent="y5AeBNAmy6L0c15EpjTO-24" vertex="1">
          <mxGeometry y="46" width="200" height="20" as="geometry" />
        </mxCell>
        <mxCell id="y5AeBNAmy6L0c15EpjTO-27" value="-String author&lt;span style=&quot;color: rgba(0 , 0 , 0 , 0) ; font-family: monospace ; font-size: 0px&quot;&gt;%3CmxGraphModel%3E%3Croot%3E%3CmxCell%20id%3D%220%22%2F%3E%3CmxCell%20id%3D%221%22%20parent%3D%220%22%2F%3E%3CmxCell%20id%3D%222%22%20value%3D%22%2B%22%20style%3D%22text%3Bhtml%3D1%3Balign%3Dleft%3BverticalAlign%3Dmiddle%3Bresizable%3D0%3Bpoints%3D%5B%5D%3Bautosize%3D1%3BstrokeColor%3Dnone%3B%22%20vertex%3D%221%22%20parent%3D%221%22%3E%3CmxGeometry%20x%3D%22730%22%20y%3D%22296%22%20width%3D%22180%22%20height%3D%2220%22%20as%3D%22geometry%22%2F%3E%3C%2FmxCell%3E%3C%2Froot%3E%3C%2FmxGraphModel%3E&lt;/span&gt;" style="text;html=1;align=left;verticalAlign=middle;resizable=0;points=[];autosize=1;strokeColor=none;" parent="y5AeBNAmy6L0c15EpjTO-24" vertex="1">
          <mxGeometry y="66" width="200" height="20" as="geometry" />
        </mxCell>
        <mxCell id="y5AeBNAmy6L0c15EpjTO-28" value="-String image_path&lt;span style=&quot;color: rgba(0 , 0 , 0 , 0) ; font-family: monospace ; font-size: 0px&quot;&gt;%3CmxGraphModel%3E%3Croot%3E%3CmxCell%20id%3D%220%22%2F%3E%3CmxCell%20id%3D%221%22%20parent%3D%220%22%2F%3E%3CmxCell%20id%3D%222%22%20value%3D%22%2B%22%20style%3D%22text%3Bhtml%3D1%3Balign%3Dleft%3BverticalAlign%3Dmiddle%3Bresizable%3D0%3Bpoints%3D%5B%5D%3Bautosize%3D1%3BstrokeColor%3Dnone%3B%22%20vertex%3D%221%22%20parent%3D%221%22%3E%3CmxGeometry%20x%3D%22730%22%20y%3D%22296%22%20width%3D%22180%22%20height%3D%2220%22%20as%3D%22geometry%22%2F%3E%3C%2FmxCell%3E%3C%2Froot%3E%3C%2FmxGraphModel%3E&lt;/span&gt;" style="text;html=1;align=left;verticalAlign=middle;resizable=0;points=[];autosize=1;strokeColor=none;" parent="y5AeBNAmy6L0c15EpjTO-24" vertex="1">
          <mxGeometry y="86" width="200" height="20" as="geometry" />
        </mxCell>
        <mxCell id="y5AeBNAmy6L0c15EpjTO-29" value="-String ebookFile_path&lt;span style=&quot;color: rgba(0 , 0 , 0 , 0) ; font-family: monospace ; font-size: 0px&quot;&gt;%3E%3Croot%3E%3CmxCell%20id%3D%220%22%2F%3E%3CmxCell%20id%3D%221%22%20parent%3D%220%22%2F%3E%3CmxCell%20id%3D%222%22%20value%3D%22%2B%22%20style%3D%22text%3Bhtml%3D1%3Balign%3Dleft%3BverticalAlign%3Dmiddle%3Bresizable%3D0%3Bpoints%3D%5B%5D%3Bautosize%3D1%3BstrokeColor%3Dnone%3B%22%20vertex%3D%221%22%20parent%3D%221%22%3E%3CmxGeometry%20x%3D%22730%22%20y%3D%22296%22%20width%3D%22180%22%20height%3D%2220%22%20as%3D%22geometry%22%2F%3E%3C%2FmxCell%3E%3C%2Froot%3E%3C%2FmxGraphModel&lt;/span&gt;" style="text;html=1;align=left;verticalAlign=middle;resizable=0;points=[];autosize=1;strokeColor=none;" parent="y5AeBNAmy6L0c15EpjTO-24" vertex="1">
          <mxGeometry y="106" width="200" height="20" as="geometry" />
        </mxCell>
        <mxCell id="y5AeBNAmy6L0c15EpjTO-30" value="-String location&lt;span style=&quot;color: rgba(0 , 0 , 0 , 0) ; font-family: monospace ; font-size: 0px&quot;&gt;%3E%3Croot%3E%3CmxCell%20id%3D%220%22%2F%3E%3CmxCell%20id%3D%221%22%20parent%3D%220%22%2F%3E%3CmxCell%20id%3D%222%22%20value%3D%22%2B%22%20style%3D%22text%3Bhtml%3D1%3Balign%3Dleft%3BverticalAlign%3Dmiddle%3Bresizable%3D0%3Bpoints%3D%5B%5D%3Bautosize%3D1%3BstrokeColor%3Dnone%3B%22%20vertex%3D%221%22%20parent%3D%221%22%3E%3CmxGeometry%20x%3D%22730%22%20y%3D%22296%22%20width%3D%22180%22%20height%3D%2220%22%20as%3D%22geometry%22%2F%3E%3C%2FmxCell%3E%3C%2Froot%3E%3C%2FmxGraphModel&lt;/span&gt;" style="text;html=1;align=left;verticalAlign=middle;resizable=0;points=[];autosize=1;strokeColor=none;" parent="y5AeBNAmy6L0c15EpjTO-24" vertex="1">
          <mxGeometry y="126" width="200" height="20" as="geometry" />
        </mxCell>
        <mxCell id="y5AeBNAmy6L0c15EpjTO-31" value="-int quantity&lt;span style=&quot;color: rgba(0 , 0 , 0 , 0) ; font-family: monospace ; font-size: 0px&quot;&gt;3CmxGraphModel%3E%3Croot%3E%3CmxCell%20id%3D%220%22%2F%3E%3CmxCell%20id%3D%221%22%20parent%3D%220%22%2F%3E%3CmxCell%20id%3D%222%22%20value%3D%22%2B%22%20style%3D%22text%3Bhtml%3D1%3Balign%3Dleft%3BverticalAlign%3Dmiddle%3Bresizable%3D0%3Bpoints%3D%5B%5D%3Bautosize%3D1%3BstrokeColor%3Dnone%3B%22%20vertex%3D%221%22%20parent%3D%221%22%3E%3CmxGeometry%20x%3D%22730%22%20y%3D%22296%22%20width%3D%22180%22%20height%3D%2220%22%20as%3D%22geometry%22%2F%3E%3C%2FmxCell%3E%3C%2Froot%3E%3C%2FmxGraphModel&lt;/span&gt;" style="text;html=1;align=left;verticalAlign=middle;resizable=0;points=[];autosize=1;strokeColor=none;" parent="y5AeBNAmy6L0c15EpjTO-24" vertex="1">
          <mxGeometry y="146" width="200" height="20" as="geometry" />
        </mxCell>
        <mxCell id="y5AeBNAmy6L0c15EpjTO-32" value="-int price&lt;span style=&quot;color: rgba(0 , 0 , 0 , 0) ; font-family: monospace ; font-size: 0px&quot;&gt;3CmxGraphModel%3E%3Croot%3E%3CmxCell%20id%3D%220%22%2F%3E%3CmxCell%20id%3D%221%22%20parent%3D%220%22%2F%3E%3CmxCell%20id%3D%222%22%20value%3D%22%2B%22%20style%3D%22text%3Bhtml%3D1%3Balign%3Dleft%3BverticalAlign%3Dmiddle%3Bresizable%3D0%3Bpoints%3D%5B%5D%3Bautosize%3D1%3BstrokeColor%3Dnone%3B%22%20vertex%3D%221%22%20parent%3D%221%22%3E%3CmxGeometry%20x%3D%22730%22%20y%3D%22296%22%20width%3D%22180%22%20height%3D%2220%22%20as%3D%22geometry%22%2F%3E%3C%2FmxCell%3E%3C%2Froot%3E%3C%2FmxGraphModel%3E&lt;/span&gt;" style="text;html=1;align=left;verticalAlign=middle;resizable=0;points=[];autosize=1;strokeColor=none;" parent="y5AeBNAmy6L0c15EpjTO-24" vertex="1">
          <mxGeometry y="166" width="200" height="20" as="geometry" />
        </mxCell>
        <mxCell id="y5AeBNAmy6L0c15EpjTO-33" value="-String description&lt;span style=&quot;color: rgba(0 , 0 , 0 , 0) ; font-family: monospace ; font-size: 0px&quot;&gt;%3CmxGraphModel%3E%3Croot%3E%3CmxCell%20id%3D%220%22%2F%3E%3CmxCell%20id%3D%221%22%20parent%3D%220%22%2F%3E%3CmxCell%20id%3D%222%22%20value%3D%22%2B%22%20style%3D%22text%3Bhtml%3D1%3Balign%3Dleft%3BverticalAlign%3Dmiddle%3Bresizable%3D0%3Bpoints%3D%5B%5D%3Bautosize%3D1%3BstrokeColor%3Dnone%3B%22%20vertex%3D%221%22%20parent%3D%221%22%3E%3CmxGeometry%20x%3D%22730%22%20y%3D%22296%22%20width%3D%22180%22%20height%3D%2220%22%20as%3D%22geometry%22%2F%3E%3C%2FmxCell%3E%3C%2Froot%3E%3C%2FmxGraphModel%3E&lt;/span&gt;" style="text;html=1;align=left;verticalAlign=middle;resizable=0;points=[];autosize=1;strokeColor=none;" parent="y5AeBNAmy6L0c15EpjTO-24" vertex="1">
          <mxGeometry y="186" width="200" height="20" as="geometry" />
        </mxCell>
        <mxCell id="y5AeBNAmy6L0c15EpjTO-34" value="" style="line;html=1;strokeWidth=1;align=left;verticalAlign=middle;spacingTop=-1;spacingLeft=3;spacingRight=3;rotatable=0;labelPosition=right;points=[];portConstraint=eastwest;" parent="y5AeBNAmy6L0c15EpjTO-24" vertex="1">
          <mxGeometry y="206" width="200" height="8" as="geometry" />
        </mxCell>
        <mxCell id="y5AeBNAmy6L0c15EpjTO-35" value="+BooksResponseDto(entity:Books)" style="text;html=1;align=left;verticalAlign=middle;resizable=0;points=[];autosize=1;strokeColor=none;" parent="y5AeBNAmy6L0c15EpjTO-24" vertex="1">
          <mxGeometry y="214" width="200" height="20" as="geometry" />
        </mxCell>
        <mxCell id="y5AeBNAmy6L0c15EpjTO-36" value="" style="endArrow=open;endSize=12;dashed=1;html=1;rounded=0;entryX=0.5;entryY=0;entryDx=0;entryDy=0;exitX=0.5;exitY=1;exitDx=0;exitDy=0;" parent="WIyWlLk6GJQsqaUBKTNV-1" source="y5AeBNAmy6L0c15EpjTO-6" target="y5AeBNAmy6L0c15EpjTO-24" edge="1">
          <mxGeometry x="-1" y="-106" width="160" relative="1" as="geometry">
            <mxPoint x="-193" y="358" as="sourcePoint" />
            <mxPoint x="-193" y="418" as="targetPoint" />
            <Array as="points" />
            <mxPoint x="-10" y="-22" as="offset" />
          </mxGeometry>
        </mxCell>
        <mxCell id="y5AeBNAmy6L0c15EpjTO-37" value="" style="endArrow=open;endSize=12;dashed=1;html=1;rounded=0;" parent="WIyWlLk6GJQsqaUBKTNV-1" edge="1">
          <mxGeometry x="-1" y="-106" width="160" relative="1" as="geometry">
            <mxPoint x="225" y="310" as="sourcePoint" />
            <mxPoint x="224.5" y="414" as="targetPoint" />
            <Array as="points" />
            <mxPoint x="-10" y="-22" as="offset" />
          </mxGeometry>
        </mxCell>
        <mxCell id="y5AeBNAmy6L0c15EpjTO-38" value="1" style="text;html=1;strokeColor=none;fillColor=none;align=center;verticalAlign=middle;whiteSpace=wrap;rounded=0;" parent="WIyWlLk6GJQsqaUBKTNV-1" vertex="1">
          <mxGeometry x="-443" y="210" width="30" height="20" as="geometry" />
        </mxCell>
        <mxCell id="y5AeBNAmy6L0c15EpjTO-39" value="1" style="text;html=1;strokeColor=none;fillColor=none;align=center;verticalAlign=middle;whiteSpace=wrap;rounded=0;" parent="WIyWlLk6GJQsqaUBKTNV-1" vertex="1">
          <mxGeometry x="-392.5" y="274" width="30" height="20" as="geometry" />
        </mxCell>
        <mxCell id="y5AeBNAmy6L0c15EpjTO-40" value="" style="endArrow=classic;html=1;exitX=0;exitY=1;exitDx=0;exitDy=0;rounded=0;entryX=1;entryY=1;entryDx=0;entryDy=0;" parent="WIyWlLk6GJQsqaUBKTNV-1" source="y5AeBNAmy6L0c15EpjTO-41" target="y5AeBNAmy6L0c15EpjTO-42" edge="1">
          <mxGeometry width="50" height="50" relative="1" as="geometry">
            <mxPoint x="-22.5" y="281.5" as="sourcePoint" />
            <mxPoint x="112.5" y="281.5" as="targetPoint" />
            <Array as="points" />
          </mxGeometry>
        </mxCell>
        <mxCell id="y5AeBNAmy6L0c15EpjTO-41" value="1" style="text;html=1;strokeColor=none;fillColor=none;align=center;verticalAlign=middle;whiteSpace=wrap;rounded=0;" parent="WIyWlLk6GJQsqaUBKTNV-1" vertex="1">
          <mxGeometry x="-32.5" y="260" width="30" height="20" as="geometry" />
        </mxCell>
        <mxCell id="y5AeBNAmy6L0c15EpjTO-42" value="1" style="text;html=1;strokeColor=none;fillColor=none;align=center;verticalAlign=middle;whiteSpace=wrap;rounded=0;" parent="WIyWlLk6GJQsqaUBKTNV-1" vertex="1">
          <mxGeometry x="78.5" y="260" width="30" height="20" as="geometry" />
        </mxCell>
        <mxCell id="zqlpjL5I8D7lCb4Tsc_S-0" style="edgeStyle=orthogonalEdgeStyle;rounded=0;orthogonalLoop=1;jettySize=auto;html=1;entryX=1;entryY=0.5;entryDx=0;entryDy=0;exitX=0.5;exitY=1;exitDx=0;exitDy=0;" parent="WIyWlLk6GJQsqaUBKTNV-1" source="zqlpjL5I8D7lCb4Tsc_S-1" target="zqlpjL5I8D7lCb4Tsc_S-16" edge="1">
          <mxGeometry relative="1" as="geometry">
            <mxPoint x="-708.9200000000001" y="199.01199999999994" as="sourcePoint" />
          </mxGeometry>
        </mxCell>
        <mxCell id="zqlpjL5I8D7lCb4Tsc_S-1" value="ViewController" style="swimlane;fontStyle=2;align=center;verticalAlign=top;childLayout=stackLayout;horizontal=1;startSize=26;horizontalStack=0;resizeParent=1;resizeLast=0;collapsible=1;marginBottom=0;rounded=0;shadow=0;strokeWidth=1;" parent="WIyWlLk6GJQsqaUBKTNV-1" vertex="1">
          <mxGeometry x="-800" y="86" width="184" height="114" as="geometry">
            <mxRectangle x="230" y="140" width="160" height="26" as="alternateBounds" />
          </mxGeometry>
        </mxCell>
        <mxCell id="zqlpjL5I8D7lCb4Tsc_S-2" value="- authentication" style="text;align=left;verticalAlign=top;spacingLeft=4;spacingRight=4;overflow=hidden;rotatable=0;points=[[0,0.5],[1,0.5]];portConstraint=eastwest;" parent="zqlpjL5I8D7lCb4Tsc_S-1" vertex="1">
          <mxGeometry y="26" width="184" height="26" as="geometry" />
        </mxCell>
        <mxCell id="zqlpjL5I8D7lCb4Tsc_S-3" value="" style="line;html=1;strokeWidth=1;align=left;verticalAlign=middle;spacingTop=-1;spacingLeft=3;spacingRight=3;rotatable=0;labelPosition=right;points=[];portConstraint=eastwest;" parent="zqlpjL5I8D7lCb4Tsc_S-1" vertex="1">
          <mxGeometry y="52" width="184" height="10" as="geometry" />
        </mxCell>
        <mxCell id="zqlpjL5I8D7lCb4Tsc_S-4" value="+ constructor(response)" style="text;align=left;verticalAlign=top;spacingLeft=4;spacingRight=4;overflow=hidden;rotatable=0;points=[[0,0.5],[1,0.5]];portConstraint=eastwest;" parent="zqlpjL5I8D7lCb4Tsc_S-1" vertex="1">
          <mxGeometry y="62" width="184" height="26" as="geometry" />
        </mxCell>
        <mxCell id="zqlpjL5I8D7lCb4Tsc_S-5" value="- render()" style="text;align=left;verticalAlign=top;spacingLeft=4;spacingRight=4;overflow=hidden;rotatable=0;points=[[0,0.5],[1,0.5]];portConstraint=eastwest;" parent="zqlpjL5I8D7lCb4Tsc_S-1" vertex="1">
          <mxGeometry y="88" width="184" height="26" as="geometry" />
        </mxCell>
        <mxCell id="zqlpjL5I8D7lCb4Tsc_S-6" value="IssueInfoPageView" style="swimlane;fontStyle=2;align=center;verticalAlign=top;childLayout=stackLayout;horizontal=1;startSize=26;horizontalStack=0;resizeParent=1;resizeLast=0;collapsible=1;marginBottom=0;rounded=0;shadow=0;strokeWidth=1;" parent="WIyWlLk6GJQsqaUBKTNV-1" vertex="1">
          <mxGeometry x="-1070" y="86" width="184" height="120" as="geometry">
            <mxRectangle x="230" y="140" width="160" height="26" as="alternateBounds" />
          </mxGeometry>
        </mxCell>
        <mxCell id="zqlpjL5I8D7lCb4Tsc_S-7" value="- bookList" style="text;align=left;verticalAlign=top;spacingLeft=4;spacingRight=4;overflow=hidden;rotatable=0;points=[[0,0.5],[1,0.5]];portConstraint=eastwest;" parent="zqlpjL5I8D7lCb4Tsc_S-6" vertex="1">
          <mxGeometry y="26" width="184" height="26" as="geometry" />
        </mxCell>
        <mxCell id="zqlpjL5I8D7lCb4Tsc_S-8" value="" style="line;html=1;strokeWidth=1;align=left;verticalAlign=middle;spacingTop=-1;spacingLeft=3;spacingRight=3;rotatable=0;labelPosition=right;points=[];portConstraint=eastwest;" parent="zqlpjL5I8D7lCb4Tsc_S-6" vertex="1">
          <mxGeometry y="52" width="184" height="10" as="geometry" />
        </mxCell>
        <mxCell id="zqlpjL5I8D7lCb4Tsc_S-9" value="+ constructor(bookList)" style="text;align=left;verticalAlign=top;spacingLeft=4;spacingRight=4;overflow=hidden;rotatable=0;points=[[0,0.5],[1,0.5]];portConstraint=eastwest;" parent="zqlpjL5I8D7lCb4Tsc_S-6" vertex="1">
          <mxGeometry y="62" width="184" height="26" as="geometry" />
        </mxCell>
        <mxCell id="zqlpjL5I8D7lCb4Tsc_S-10" value="- render()" style="text;align=left;verticalAlign=top;spacingLeft=4;spacingRight=4;overflow=hidden;rotatable=0;points=[[0,0.5],[1,0.5]];portConstraint=eastwest;" parent="zqlpjL5I8D7lCb4Tsc_S-6" vertex="1">
          <mxGeometry y="88" width="184" height="26" as="geometry" />
        </mxCell>
        <mxCell id="zqlpjL5I8D7lCb4Tsc_S-13" value="EbookViewerPageView" style="swimlane;fontStyle=2;align=center;verticalAlign=top;childLayout=stackLayout;horizontal=1;startSize=26;horizontalStack=0;resizeParent=1;resizeLast=0;collapsible=1;marginBottom=0;rounded=0;shadow=0;strokeWidth=1;" parent="WIyWlLk6GJQsqaUBKTNV-1" vertex="1">
          <mxGeometry x="-1070" y="279" width="184" height="114" as="geometry">
            <mxRectangle x="230" y="140" width="160" height="26" as="alternateBounds" />
          </mxGeometry>
        </mxCell>
        <mxCell id="zqlpjL5I8D7lCb4Tsc_S-14" value="- eBookContent" style="text;align=left;verticalAlign=top;spacingLeft=4;spacingRight=4;overflow=hidden;rotatable=0;points=[[0,0.5],[1,0.5]];portConstraint=eastwest;" parent="zqlpjL5I8D7lCb4Tsc_S-13" vertex="1">
          <mxGeometry y="26" width="184" height="26" as="geometry" />
        </mxCell>
        <mxCell id="zqlpjL5I8D7lCb4Tsc_S-15" value="" style="line;html=1;strokeWidth=1;align=left;verticalAlign=middle;spacingTop=-1;spacingLeft=3;spacingRight=3;rotatable=0;labelPosition=right;points=[];portConstraint=eastwest;" parent="zqlpjL5I8D7lCb4Tsc_S-13" vertex="1">
          <mxGeometry y="52" width="184" height="10" as="geometry" />
        </mxCell>
        <mxCell id="zqlpjL5I8D7lCb4Tsc_S-16" value="+ constructor(eBookContent)" style="text;align=left;verticalAlign=top;spacingLeft=4;spacingRight=4;overflow=hidden;rotatable=0;points=[[0,0.5],[1,0.5]];portConstraint=eastwest;" parent="zqlpjL5I8D7lCb4Tsc_S-13" vertex="1">
          <mxGeometry y="62" width="184" height="26" as="geometry" />
        </mxCell>
        <mxCell id="zqlpjL5I8D7lCb4Tsc_S-17" value="- render()" style="text;align=left;verticalAlign=top;spacingLeft=4;spacingRight=4;overflow=hidden;rotatable=0;points=[[0,0.5],[1,0.5]];portConstraint=eastwest;" parent="zqlpjL5I8D7lCb4Tsc_S-13" vertex="1">
          <mxGeometry y="88" width="184" height="26" as="geometry" />
        </mxCell>
        <mxCell id="zqlpjL5I8D7lCb4Tsc_S-19" style="edgeStyle=orthogonalEdgeStyle;rounded=0;orthogonalLoop=1;jettySize=auto;html=1;entryX=1;entryY=0.5;entryDx=0;entryDy=0;" parent="WIyWlLk6GJQsqaUBKTNV-1" source="zqlpjL5I8D7lCb4Tsc_S-4" target="zqlpjL5I8D7lCb4Tsc_S-9" edge="1">
          <mxGeometry relative="1" as="geometry" />
        </mxCell>
        <mxCell id="zqlpjL5I8D7lCb4Tsc_S-20" value="1" style="text;html=1;strokeColor=none;fillColor=none;align=center;verticalAlign=middle;whiteSpace=wrap;rounded=0;" parent="WIyWlLk6GJQsqaUBKTNV-1" vertex="1">
          <mxGeometry x="-526" y="110" width="20" height="20" as="geometry" />
        </mxCell>
        <mxCell id="zqlpjL5I8D7lCb4Tsc_S-21" value="0..*" style="text;html=1;strokeColor=none;fillColor=none;align=center;verticalAlign=middle;whiteSpace=wrap;rounded=0;" parent="WIyWlLk6GJQsqaUBKTNV-1" vertex="1">
          <mxGeometry x="-616" y="110" width="30" height="20" as="geometry" />
        </mxCell>
      </root>
    </mxGraphModel>
  </diagram>
</mxfile>
